<svg width="308" height="55" viewBox="0 0 308 55" fill="none" xmlns="http://www.w3.org/2000/svg">
<path d="M110.013 17.3734C110.013 17.3734 108.803 13.6737 105.898 13.6737C102.934 13.6737 101.868 17.3734 101.868 17.3734L84.1955 54.4129H68.4639L89.905 11.8932C90.0251 11.6573 90.1606 11.3651 90.3165 11.0289C91.8622 7.69564 95.4137 0.0371094 105.898 0.0371094C116.461 0.0371094 120.058 7.81215 121.581 11.1039C121.722 11.4087 121.845 11.675 121.955 11.8932L143.412 54.4129H127.68L110.013 17.3734Z" fill="#1A171B"/>
<path d="M157.928 0.682155H172.114L172.124 54.4129H157.928V0.682155Z" fill="#1A171B"/>
<path d="M193.048 54.4129V0.682155L207.245 0.692817V41.7412H242.823V54.4129H193.048Z" fill="#1A171B"/>
<path d="M279.682 54.4129H265.08L271.061 41.4266C261.442 41.4266 257.73 33.6915 256.308 30.7291C256.179 30.4605 256.069 30.2312 255.975 30.0504L240.888 0.682155H256.62L267.916 24.5595C268.801 26.468 271.067 27.7581 273.647 27.7581C276.227 27.7581 278.482 26.484 279.372 24.5595L290.344 0.682155H305.43L279.682 54.4129Z" fill="#1A171B"/>
<path fill-rule="evenodd" clip-rule="evenodd" d="M38.1324 54.413H0.916992V0.687598H38.8574C38.8574 0.687598 62.5375 -0.437233 62.5375 27.9128C62.5375 54.9781 38.1324 54.413 38.1324 54.413ZM15.092 13.258V41.8479H35.0671C35.0671 41.8479 48.7623 42.9088 48.7623 27.8382C48.7623 12.7675 35.0671 13.258 35.0671 13.258H15.092Z" fill="#1A171B"/>
</svg>
