<svg width="348" height="67" viewBox="0 0 348 67" fill="#ffffff" xmlns="http://www.w3.org/2000/svg">
<path d="M175.925 38.1819L154.362 29.0346C154.362 29.0346 149.34 26.9066 149.385 24.0329C149.385 24.0329 149.139 22.1032 153.525 19.9503L193.514 0.719318C196.518 -0.464775 198.619 0.0716438 199.613 0.507049L168.483 22.2702C168.483 22.2702 163.849 25.036 166.504 27.9305L175.16 35.9732C175.16 35.9732 176.029 36.7328 175.925 38.1819Z" fill="#ffffff"/>
<path d="M191.171 42.9189L154.726 64.7763L154.549 64.8804L152.587 66.0614C152.583 66.0648 152.576 66.0648 152.573 66.0682C149.482 67.552 147.298 66.873 146.63 66.5907C156.986 57.8901 175.423 42.393 177.337 40.728C180.019 38.4047 177.074 35.4092 177.074 35.4092C177.074 35.4092 170.162 28.4948 169.12 27.4532C168.082 26.4119 168.459 25.1857 168.459 25.1857C168.459 25.1857 185.263 33.2529 191.171 36.1824C197.079 39.1081 191.171 42.9189 191.171 42.9189Z" fill="#ffffff"/>
<path d="M215.574 24.1798L214.758 27.2433C214.53 28.0998 213.244 28.787 211.863 28.787H197.599L198.414 25.7235C198.643 24.8663 199.93 24.1798 201.302 24.1798H215.574V24.1798Z" fill="#ffffff"/>
<path d="M226.645 15.1193L230.489 37.6944H237.232L245.422 29.3033L249.148 37.6944H255.873L249.343 22.9634C249.343 22.9634 245.49 22.3423 242.391 25.5167L236.476 31.5742L233.672 15.1193H226.645V15.1193Z" fill="#ffffff"/>
<path d="M254.396 29.8136L257.107 35.9344L271.711 15.1207L266.091 15.1193C266.091 15.1193 264.685 15.1207 263.837 16.3684L254.396 29.8136Z" fill="#ffffff"/>
<path d="M268.835 37.6951H276.596L292.583 20.6476L296.72 30.866H286.626C286.626 30.866 284.997 30.8776 284.086 31.8331L280.659 35.4799H298.589L299.48 37.6951H307.233L298.097 15.12H291.667C291.667 15.12 290.041 15.12 288.727 16.4711L268.835 37.6951Z" fill="#ffffff"/>
<path d="M314.957 15.1207L323.139 26.0167L328.084 22.1647L322.791 15.1207H314.957Z" fill="#ffffff"/>
<path d="M321.343 37.6862H325.676C325.676 37.6862 327.68 37.6862 328.181 36.1426L330.245 28.3924L347.29 15.1207H342.044C342.044 15.1207 339.38 15.1207 337.129 16.9212L324.203 27.0045L321.343 37.6862Z" fill="#ffffff"/>
<path d="M117.634 42.763C113.389 42.763 109.936 39.9107 109.936 36.4047V27.3584C109.936 23.8523 113.389 21 117.634 21H131.823C136.068 21 139.521 23.8523 139.521 27.3584V36.4047C139.521 39.9107 136.068 42.763 131.823 42.763H117.634ZM116.315 26.2306C116.227 26.2306 116.156 26.3018 116.156 26.3894V37.3605C116.156 37.4481 116.227 37.5194 116.315 37.5194H133.045C133.132 37.5194 133.204 37.4481 133.204 37.3605V26.3894C133.204 26.3018 133.132 26.2306 133.045 26.2306H116.315Z" fill="#ffffff"/>
<path d="M72.6557 42.7632H54.9755C50.731 42.7632 47.278 39.9109 47.278 36.4048V27.3553C47.278 23.8493 50.731 20.997 54.9755 21.0005H72.5679L72.6958 21.0002C72.9651 21.0002 73.1834 21.2185 73.1834 21.4878L73.1835 21.5069V25.7442C73.1835 26.0135 72.9651 26.2318 72.6958 26.2318L72.655 26.2315L53.6818 26.2318C53.5798 26.2318 53.4968 26.3148 53.4968 26.4168V37.3345C53.4968 37.4365 53.5798 37.5195 53.6818 37.5195L72.638 37.5198L72.6958 37.5199C72.9651 37.5199 73.1834 37.7382 73.1834 38.0074L73.1836 38.0165L73.1814 42.2718L73.182 42.2757C73.182 42.545 72.9651 42.7633 72.6958 42.7633L72.6557 42.7632Z" fill="#ffffff"/>
<path d="M104.303 42.7632H86.6228C82.3783 42.7632 78.9253 39.9109 78.9253 36.4048V27.3553C78.9253 23.8493 82.3783 20.997 86.6228 21.0005H104.215L104.343 21.0002C104.612 21.0002 104.831 21.2185 104.831 21.4878L104.831 21.5069V25.7442C104.831 26.0135 104.612 26.2318 104.343 26.2318L104.302 26.2315L85.3291 26.2318C85.2271 26.2318 85.1441 26.3148 85.1441 26.4168V37.3345C85.1441 37.4365 85.2271 37.5195 85.3291 37.5195L104.285 37.5198L104.343 37.5199C104.612 37.5199 104.831 37.7382 104.831 38.0074L104.831 38.0165L104.829 42.2718L104.829 42.2757C104.829 42.545 104.612 42.7633 104.343 42.7633L104.303 42.7632Z" fill="#ffffff"/>
<path d="M72.747 34.3168H56.931C56.7731 34.3168 56.6438 34.1876 56.6438 34.0296V29.7775C56.6438 29.6195 56.7731 29.4902 56.931 29.4902H72.747C72.905 29.4902 73.0342 29.6195 73.0342 29.7775V34.0296C73.0342 34.1876 72.905 34.3168 72.747 34.3168Z" fill="#ffffff"/>
<path d="M27.2347 43.58C24.7975 43.58 22.5812 42.4716 21.4508 40.6873L21.3854 40.5779L10.3697 21.646C10.2965 21.5154 10.2979 21.3639 10.3719 21.2376C10.4576 21.0913 10.6264 21.0004 10.8121 21.0004H16.6246C16.8142 21.0004 16.9842 21.0939 17.0686 21.2444L27.0181 38.2744C27.039 38.2989 27.1012 38.3531 27.2439 38.3561C27.4069 38.355 27.4525 38.2801 27.4746 38.2441L38.2749 21.2279C38.3596 21.0888 38.5267 21.0004 38.7091 21.0004H44.6125C44.8017 21.0004 44.9719 21.0939 45.0565 21.2444C45.1296 21.3744 45.1267 21.5285 45.0486 21.6566L33.0679 40.6121C31.9641 42.4253 29.749 43.5635 27.2886 43.5798L27.2347 43.58Z" fill="#ffffff"/>
<path d="M5.78565 42.7635H0.487566C0.219406 42.7635 0 42.5441 0 42.2759V21.4879C0 21.2197 0.219406 21.0003 0.487566 21.0003H5.78565C6.05381 21.0003 6.27322 21.2197 6.27322 21.4879V42.2759C6.27322 42.5441 6.05381 42.7635 5.78565 42.7635Z" fill="#ffffff"/>
</svg>
